<svg width="1024" height="1024" viewBox="0 0 1024 1024" fill="none" xmlns="http://www.w3.org/2000/svg">
<path d="M1024 512C1024 794.77 794.77 1024 512 1024C229.23 1024 0 794.77 0 512C0 229.23 229.23 0 512 0C794.77 0 1024 229.23 1024 512Z" fill="#212330"/>
<path d="M478.329 818C309.701 818 173 681.216 173 512.485C173 343.754 312.918 207 481.547 207H769L637.43 340.052L481.547 339.366C385.978 339.366 305.286 416.858 305.286 512.485C305.286 608.113 390.983 688.854 486.552 688.854H634.927V574.733H454.487L577.479 451.669H768.643V818H478.329Z" fill="white"/>
</svg>
